<svg xmlns="http://www.w3.org/2000/svg" viewBox="0 0 100 100" height="100" width="100"><title>style 2 2</title><g class="nc-icon-wrapper" fill="#f44646"><path d="M93.55 6.29a7.28 7.28 0 0 0-10.3 0l-40.19 35.83a19.54 19.54 0 0 1 14.66 14.66l35.83-40.19a7.28 7.28 0 0 0 0-10.3z" data-color="color-2"/><path d="M38.62 45.76a15.36 15.36 0 0 0-10.93 4.53c-5.62 5.62-6.77 24.31-6.89 26.41a2.21 2.21 0 0 0 2.21 2.34 1.15 1.15 0 0 0 0.12 0c2.11-0.11 20.81-1.28 26.42-6.89a15.46 15.46 0 0 0-10.93-26.39z" data-color="color-2"/><path d="M89.44 27.46v61.98h-79.04v-79.04h61.99l4.62-4.16h-68.69a2.08 2.08 0 0 0-2.08 2.08v83.2a2.08 2.08 0 0 0 2.08 2.08h83.2a2.08 2.08 0 0 0 2.08-2.08v-68.69z" fill="#f44646"/></g></svg>