<svg xmlns="http://www.w3.org/2000/svg" viewBox="0 0 100 100" width="100" height="100"><title>pc 2</title><g class="nc-icon-wrapper" fill="#f44646"><path data-color="color-2" d="M74.88 89.44h-12.48v-8.32h-24.96v8.32h-12.48a2.08 2.08 0 0 0 0 4.16h49.92a2.08 2.08 0 0 0 0-4.16z"/><path d="M87.36 6.24h-74.88a10.41 10.41 0 0 0-10.4 10.4v49.92a10.41 10.41 0 0 0 10.4 10.4h74.88a10.41 10.41 0 0 0 10.4-10.4v-49.92a10.41 10.41 0 0 0-10.4-10.4z m6.24 54.08h-87.36v-43.68a6.24 6.24 0 0 1 6.24-6.24h74.88a6.24 6.24 0 0 1 6.24 6.24z" fill="#f44646"/><path data-color="color-2" d="M49.92 16.64a2.08 2.08 0 1 0 0 4.16 2.08 2.08 0 1 0 0-4.16z"/></g></svg>