<svg xmlns="http://www.w3.org/2000/svg" viewBox="0 0 100 100" width="100" height="100"><title>privacy policy 2</title><g class="nc-icon-wrapper" stroke-linecap="square" stroke-linejoin="miter" stroke-width="2" fill="#f44646" stroke="#f44646"><path fill="none" stroke="#f44646" stroke-miterlimit="10" data-cap="butt" d="M17.16 10.92a10.92 10.92 0 1 0 0 21.84 10.92 10.92 0 1 0 0-21.84z" stroke-linecap="butt"/><path d="M43.68 62.4c-15.6-7.8-15.6-21.84-28.08-21.84a12.76 12.76 0 0 0-12.48 12.48v35.88h24.96v-24.96" fill="none" stroke="#f44646" stroke-miterlimit="10"/><path fill="none" stroke-miterlimit="10" data-cap="butt" data-color="color-2" d="M82.68 10.92a10.92 10.92 0 1 0 0 21.84 10.92 10.92 0 1 0 0-21.84z" stroke-linecap="butt"/><path d="M56.16 62.4c15.6-7.8 15.6-21.84 28.08-21.84a12.76 12.76 0 0 1 12.48 12.48v35.88h-24.96v-24.96" fill="none" stroke-miterlimit="10" data-color="color-2"/></g></svg>